<svg xmlns="http://www.w3.org/2000/svg" width="160.484" height="82.933" viewBox="0 0 160.484 82.933"><defs><style>.a{fill:#ff009d;}.b{fill:#fff;}.c{fill:#008cff;}</style></defs><g transform="translate(-23.508 -18.267)"><g transform="translate(23.508 18.267)"><g transform="translate(0 0)"><path class="a" d="M896.14,298.89c-2.334-4.265-1.9-7.247,1.833-9.961,3.864-2.812,7.9-5.4,11.941-7.952,6.449-4.064,6.921-10.372.786-15.136-4.256-3.305-8.834-6.2-13.272-9.268-3.408-2.358-6.34-5-6.763-9.528-.435-4.653,1.55-8.117,5.126-10.751,3.85-2.836,7.794-5.548,11.763-8.215,2.887-1.94,5.472-4.1,6.763-7.584,2.371,4.182,1.911,7.034-1.854,9.829-3.839,2.849-7.873,5.434-11.82,8.138a10.665,10.665,0,0,0-4.9,8.239c-.25,3.167,1.475,5.3,4.013,6.946,4.53,2.93,9.075,5.838,13.546,8.857,9.173,6.195,9.312,14.771.364,21.168-3.891,2.782-7.825,5.507-11.77,8.212C899.314,293.657,897.158,295.758,896.14,298.89Z" transform="translate(-889.239 -220.495)"/><path class="b" d="M887.345,389.473c3.864-2.812,7.113-5.656,10.865-8.592,6-4.7,6.921-10.372.786-15.136-4.256-3.305-8.834-6.2-13.272-9.268-3.408-2.358-6.34-5-6.763-9.528-.434-4.653,1.55-8.117,5.126-10.751,3.85-2.836,8.973-5.075,12.942-7.742l3.73,1.772c-3.839,2.849-7.873,5.434-11.82,8.138a10.665,10.665,0,0,0-4.9,8.239c-.25,3.167,1.475,5.3,4.013,6.946,4.53,2.93,9.075,5.838,13.546,8.857,9.173,6.195,9.312,14.771.364,21.168-3.891,2.782-7.825,5.506-11.77,8.212Z" transform="translate(-878.902 -315.861)"/><path class="c" d="M898.394,337.792c-2.334-4.265-1.9-7.247,1.833-9.961,3.863-2.812,7.9-5.4,11.941-7.952,6.448-4.064,6.921-10.372.787-15.136-4.257-3.305-8.834-6.2-13.273-9.268-3.409-2.358-6.34-5-6.763-9.528-.435-4.653,1.55-8.116,5.126-10.751,3.85-2.836,7.794-5.547,11.764-8.215,2.887-1.94,5.471-4.1,6.763-7.584,2.371,4.182,1.911,7.034-1.854,9.828-3.839,2.849-7.873,5.434-11.82,8.138A10.665,10.665,0,0,0,898,285.6c-.25,3.167,1.475,5.3,4.013,6.946,4.53,2.93,9.075,5.838,13.545,8.857,9.173,6.195,9.312,14.771.364,21.168-3.891,2.782-7.825,5.506-11.77,8.212C901.568,332.559,899.412,334.66,898.394,337.792Z" transform="translate(-891.231 -254.858)"/></g></g><g transform="translate(62.373 44.052)"><g transform="translate(0 0)"><path class="b" d="M1183.667,502.506a2.373,2.373,0,0,0,1.154.711,5.223,5.223,0,0,0,1.817.332,3.428,3.428,0,0,0,2.228-.616,2.011,2.011,0,0,0,.743-1.628,1.985,1.985,0,0,0-.917-1.691,18.9,18.9,0,0,0-3.1-1.6l-.885-.379a8.324,8.324,0,0,1-3.255-2.212,5.073,5.073,0,0,1-1.075-3.35,4.1,4.1,0,0,1,.853-2.544,5.584,5.584,0,0,1,2.4-1.754,9.4,9.4,0,0,1,3.572-.632,14.681,14.681,0,0,1,2.544.189q1.059.19,2.228.506a4.555,4.555,0,0,0,.948.253v4.141h-2.5l-.727-2.4a1.663,1.663,0,0,0-.853-.569,4.246,4.246,0,0,0-1.517-.253,3.493,3.493,0,0,0-2.07.553,1.779,1.779,0,0,0-.774,1.533,2.088,2.088,0,0,0,.537,1.47,4.038,4.038,0,0,0,1.17.9q.632.316,2.339,1.043a24.623,24.623,0,0,1,2.829,1.391,5.963,5.963,0,0,1,1.865,1.723,4.374,4.374,0,0,1,.743,2.576,4.614,4.614,0,0,1-1.833,3.793,8.332,8.332,0,0,1-5.278,1.454,13.39,13.39,0,0,1-2.892-.284q-1.28-.285-2.955-.759l-.7-.221v-4.172h2.623Z" transform="translate(-1180.317 -478.738)"/><path class="b" d="M1289.08,490.93a7.864,7.864,0,0,1,3.177-3.145,9.082,9.082,0,0,1,4.33-1.059,7.773,7.773,0,0,1,6.147,2.449,9.692,9.692,0,0,1,2.165,6.653,10.245,10.245,0,0,1-1.185,5.1,7.654,7.654,0,0,1-3.161,3.129,9.281,9.281,0,0,1-4.346,1.027,7.781,7.781,0,0,1-6.132-2.449,9.643,9.643,0,0,1-2.181-6.653A10.086,10.086,0,0,1,1289.08,490.93Zm10.952,5.215a13.761,13.761,0,0,0-.854-5.484,2.879,2.879,0,0,0-2.781-1.881q-3.667,0-3.667,6.89a13.114,13.114,0,0,0,.9,5.484,2.968,2.968,0,0,0,2.829,1.881Q1300.032,503.035,1300.032,496.145Z" transform="translate(-1271.65 -478.382)"/><path class="b" d="M1419.059,442.723H1416.4v-1.77l2.655-.632V438.93a6.847,6.847,0,0,1,1.09-3.761,7.851,7.851,0,0,1,2.924-2.7,8.026,8.026,0,0,1,3.888-1,6.364,6.364,0,0,1,2.023.316v4.046a3.433,3.433,0,0,0-1.249-.632,6.024,6.024,0,0,0-1.944-.316,2.187,2.187,0,0,0-1.754.616,3.283,3.283,0,0,0-.521,2.1v2.686h4.014v2.434h-4.014v12.959l3.319.253v1.9h-10.272v-1.9l2.5-.285Z" transform="translate(-1380.752 -431.471)"/><path class="b" d="M1509.33,502.506a2.373,2.373,0,0,0,1.154.711,5.219,5.219,0,0,0,1.817.332,3.43,3.43,0,0,0,2.229-.616,2.011,2.011,0,0,0,.743-1.628,1.985,1.985,0,0,0-.917-1.691,18.885,18.885,0,0,0-3.1-1.6l-.885-.379a8.325,8.325,0,0,1-3.255-2.212,5.073,5.073,0,0,1-1.075-3.35,4.1,4.1,0,0,1,.854-2.544,5.582,5.582,0,0,1,2.4-1.754,9.4,9.4,0,0,1,3.571-.632,14.683,14.683,0,0,1,2.544.189q1.058.19,2.228.506a4.557,4.557,0,0,0,.948.253v4.141h-2.5l-.727-2.4a1.664,1.664,0,0,0-.854-.569,4.244,4.244,0,0,0-1.517-.253,3.493,3.493,0,0,0-2.07.553,1.778,1.778,0,0,0-.774,1.533,2.086,2.086,0,0,0,.537,1.47,4.035,4.035,0,0,0,1.169.9q.632.316,2.339,1.043a24.585,24.585,0,0,1,2.829,1.391,5.957,5.957,0,0,1,1.865,1.723,4.373,4.373,0,0,1,.743,2.576,4.614,4.614,0,0,1-1.833,3.793,8.332,8.332,0,0,1-5.278,1.454,13.394,13.394,0,0,1-2.892-.284q-1.28-.285-2.955-.759l-.7-.221v-4.172h2.624Z" transform="translate(-1456.801 -478.738)"/><path class="b" d="M1612.376,480.476a3.893,3.893,0,0,1-.948-2.908v-11.6h-2.054v-1.644q.253-.095.917-.332t1.011-.4a3.129,3.129,0,0,0,.916-1.422q.285-.664,1.043-3.287h2.529l.126,4.646h4.836v2.434h-4.8v8.882a22.231,22.231,0,0,0,.095,2.5,1.266,1.266,0,0,0,.411.932,2.148,2.148,0,0,0,1.106.206,8.215,8.215,0,0,0,1.644-.174,6.932,6.932,0,0,0,1.422-.427l.6,1.77a8.792,8.792,0,0,1-2.592,1.2,11.028,11.028,0,0,1-3.319.537A4.094,4.094,0,0,1,1612.376,480.476Z" transform="translate(-1544.58 -454.749)"/><path class="b" d="M1700.147,490.348l-2.244-.6V487.63l5.784-.7h.063l.885.632v15.2l2.118.253v1.9h-8.818v-1.9l2.212-.285Z" transform="translate(-1619.741 -478.559)"/><path class="b" d="M1769.941,491.214a7.954,7.954,0,0,1,3.129-3.3,9.293,9.293,0,0,1,4.757-1.185,10.905,10.905,0,0,1,2.181.19q.916.19,2.054.506l.917.253-.189,5.4h-2.75l-.79-3.477q-.189-.822-1.865-.822a3.12,3.12,0,0,0-2.765,1.549,9.321,9.321,0,0,0-1.027,4.836,9.793,9.793,0,0,0,1.2,5.326,3.655,3.655,0,0,0,3.192,1.849,8.04,8.04,0,0,0,4.425-1.3l.727,1.643a7.731,7.731,0,0,1-2.512,1.643,8.816,8.816,0,0,1-3.651.759,7.393,7.393,0,0,1-6.084-2.5,10.017,10.017,0,0,1-2.039-6.542A10.418,10.418,0,0,1,1769.941,491.214Z" transform="translate(-1679.975 -478.382)"/><path class="b" d="M1880.787,495.837a16.928,16.928,0,0,1,7.475-1.486v-.727a6.053,6.053,0,0,0-.269-2.023,1.95,1.95,0,0,0-.98-1.09,4.676,4.676,0,0,0-2.07-.364,9.1,9.1,0,0,0-2.781.4,20.662,20.662,0,0,0-2.56,1.027l-.98-2.023a8.361,8.361,0,0,1,1.6-.98,14.353,14.353,0,0,1,2.671-1,11.96,11.96,0,0,1,3.192-.427,9.32,9.32,0,0,1,3.809.632,3.825,3.825,0,0,1,1.975,2.023,9.58,9.58,0,0,1,.6,3.73V503.2h1.707v1.77a17.693,17.693,0,0,1-1.8.316,15.594,15.594,0,0,1-2.054.158,2.307,2.307,0,0,1-1.438-.316,1.712,1.712,0,0,1-.364-1.3v-.853a8.548,8.548,0,0,1-2.212,1.707,6.182,6.182,0,0,1-3.066.759,5.824,5.824,0,0,1-2.671-.616,4.77,4.77,0,0,1-1.944-1.8,5.363,5.363,0,0,1-.727-2.86A4.637,4.637,0,0,1,1880.787,495.837Zm5.99,6.59a5.928,5.928,0,0,0,1.486-.964v-5.183a7.573,7.573,0,0,0-4.251.964,2.9,2.9,0,0,0-1.407,2.481,3.341,3.341,0,0,0,.711,2.307,2.482,2.482,0,0,0,1.944.79A3.68,3.68,0,0,0,1886.776,502.427Z" transform="translate(-1772.552 -478.738)"/></g><path class="b" d="M1708.194,440.982a2.311,2.311,0,0,1-.664-1.707,2.76,2.76,0,0,1,.759-1.991,2.675,2.675,0,0,1,2.023-.79,2.576,2.576,0,0,1,1.928.68,2.324,2.324,0,0,1,.664,1.691,2.734,2.734,0,0,1-.759,2.023,2.863,2.863,0,0,1-2.118.759H1710A2.435,2.435,0,0,1,1708.194,440.982Z" transform="translate(-1627.915 -435.735)"/></g></g></svg>